<svg xmlns="http://www.w3.org/2000/svg" width="2535" height="550" viewBox="0 0 2535 550" fill="none">
<circel xmlns="" width="2535" height="550" fill="#E5E5E5"/>
<path d="M1299.37 395.79V155.808H1472.06V199.408H1344.68V264.984H1465.19V306.871H1344.68V395.79H1299.37Z" fill="#24B2FA"/>
<path d="M1500.22 395.79H1542.1V225.847H1500.22V395.79ZM1545.88 178.812C1545.88 211.427 1496.44 211.427 1496.44 178.812C1496.44 146.196 1545.88 146.196 1545.88 178.812Z" fill="#24B2FA"/>
<path d="M1704.5 395.79V307.212C1704.5 281.463 1690.42 261.895 1663.64 261.895C1637.89 261.895 1620.38 283.523 1620.38 309.271V395.79H1578.84V226.188H1616.26L1619.01 249.192C1636.17 232.37 1653.34 223.784 1674.63 223.784C1714.45 223.784 1746.38 253.655 1746.38 306.871V395.79H1704.5Z" fill="#24B2FA"/>
<path d="M1815.05 310.989C1815.05 343.264 1837.37 362.488 1865.18 362.488C1931.09 362.488 1931.09 259.836 1865.18 259.836C1837.37 259.836 1815.05 278.718 1815.05 310.989ZM1916.67 226.533H1956.84V395.79H1917.36L1915.3 371.072C1905.69 390.986 1879.25 400.598 1860.37 400.938C1810.25 401.284 1773.17 370.385 1773.17 310.989C1773.17 252.625 1811.96 222.07 1861.4 222.412C1884.06 222.412 1905.69 233.056 1915.3 249.878L1916.67 226.533Z" fill="#24B2FA"/>
<path d="M2116.84 395.79V307.212C2116.84 281.463 2102.76 261.895 2075.98 261.895C2050.24 261.895 2032.72 283.523 2032.72 309.271V395.79H1991.18V226.188H2028.6L2031.35 249.192C2048.52 232.37 2065.68 223.784 2086.97 223.784C2126.8 223.784 2158.72 253.655 2158.72 306.871V395.79H2116.84Z" fill="#24B2FA"/>
<path d="M2340 374.162C2320.44 393.386 2299.84 400.939 2274.77 400.939C2225.68 400.939 2184.82 371.413 2184.82 311.334C2184.82 251.251 2225.68 221.726 2274.77 221.726C2298.81 221.726 2317.34 228.593 2335.88 246.789L2309.45 274.597C2299.49 265.671 2287.13 261.209 2275.46 261.209C2247.31 261.209 2226.71 281.809 2226.71 311.334C2226.71 343.605 2248.68 360.77 2274.77 360.77C2288.16 360.77 2301.55 356.994 2311.85 346.695L2340 374.162Z" fill="#24B2FA"/>
<path d="M2493.13 291.42C2490.38 269.448 2473.21 258.459 2449.18 258.459C2426.52 258.459 2407.98 269.448 2401.8 291.42H2493.13ZM2401.11 326.095C2403.86 347.039 2422.06 362.146 2451.58 362.146C2467.03 362.146 2487.29 356.307 2496.9 346.35L2523.68 372.788C2505.83 391.327 2476.65 400.252 2450.9 400.252C2392.53 400.252 2357.86 364.204 2357.86 309.962C2357.86 258.459 2392.88 221.38 2447.81 221.38C2504.46 221.38 2539.82 256.4 2533.29 326.095H2401.11Z" fill="#24B2FA"/>
<path d="M275 550C426.879 550 550 426.879 550 275C550 123.122 426.879 0 275 0C123.122 0 0 123.122 0 275C0 426.879 123.122 550 275 550Z" fill="#0C84FF"/>
<path d="M172.444 275L130.369 317.363L88.0059 275L130.369 232.637L172.444 275ZM275 172.443L347.466 244.908L389.807 202.535L317.344 130.348L275 88.0059L232.637 130.369L160.45 202.555L202.814 244.908L275 172.443ZM419.63 232.637L377.558 275L419.921 317.363L461.994 275L419.63 232.637ZM275 377.557L202.535 305.091L160.461 347.466L232.925 419.92L275 461.993L317.363 419.63L389.807 347.186L347.444 305.111L275 377.557ZM275 317.363L317.363 275L275 232.637L232.637 275L275 317.363Z" fill="white"/>
<path d="M616 156H710.324C733.725 156 751.425 163.151 763.428 177.452C767.949 182.734 771.516 189.046 773.908 196.003C776.298 202.96 777.466 210.418 777.339 217.924V218.603C777.423 224.752 776.697 230.878 775.188 236.765C773.847 241.833 771.897 246.649 769.398 251.066C767.073 255.232 764.256 258.987 761.034 262.221C757.887 265.416 754.44 268.176 750.759 270.444C761.373 274.805 770.916 282.171 778.554 291.896C785.301 300.953 788.676 313.466 788.676 329.436V330.115C788.868 340.089 787.03 349.971 783.313 358.932C779.71 367.188 774.429 374.264 767.943 379.525C760.611 385.324 752.448 389.504 743.847 391.86C733.632 394.718 723.158 396.099 712.659 395.972H616V156ZM700.868 253.033C709.029 253.498 717.149 251.427 724.419 247.026C727.254 245.073 729.57 242.223 731.1 238.798C732.633 235.373 733.32 231.511 733.089 227.648V226.969C733.239 223.41 732.624 219.864 731.307 216.658C729.987 213.452 728.004 210.691 725.541 208.628C720.51 204.409 713.243 202.3 703.748 202.3H659.615V253.033H700.868ZM712.782 349.743C720.912 350.281 729.003 348.086 736.119 343.415C738.891 341.315 741.135 338.376 742.617 334.905C744.099 331.434 744.765 327.557 744.546 323.68V323.001C744.654 319.315 743.997 315.654 742.626 312.338C741.258 309.022 739.221 306.152 736.695 303.98C731.48 299.213 723.057 296.83 711.417 296.83H659.615V349.743H712.782Z" fill="#24B2FA"/>
<path d="M1036 397V227H1201V257.886H1079.29V304.339H1194.44V334.011H1079.29V397H1036Z" fill="#24B2FA"/>
<path d="M950.539 349.781C950.539 343.266 947.583 338.283 941.671 334.834C935.768 331.308 925.128 327.629 909.769 323.797C894.401 319.887 882.24 316.055 873.285 312.299C848.86 302.029 836.647 288.194 836.647 270.794C836.647 261.75 839.897 253.701 846.396 246.65C853 239.521 862.404 233.964 874.608 229.979C886.916 225.993 900.711 224 915.966 224C931.334 224 945.016 226.184 957.03 230.553C969.044 234.846 978.353 240.939 984.948 248.834C991.647 256.729 995 265.697 995 275.738H950.686C950.686 268.073 947.583 262.133 941.377 257.917C935.171 253.625 926.459 251.479 915.231 251.479C904.401 251.479 895.983 253.28 889.976 256.883C883.969 260.408 880.961 265.084 880.961 270.909C880.961 276.351 884.461 280.912 891.454 284.59C898.541 288.27 908.93 291.719 922.621 294.938C947.825 300.84 966.192 308.161 977.714 316.898C989.235 325.636 995 336.521 995 349.55C995 364.037 987.956 375.419 973.876 383.698C959.787 391.899 940.833 396 917.003 396C900.46 396 885.395 393.662 871.808 388.986C858.212 384.234 847.822 377.758 840.64 369.556C833.544 361.355 830 351.85 830 341.043H874.461C874.461 359.515 888.645 368.751 917.003 368.751C927.539 368.751 935.768 367.103 941.671 363.807C947.583 360.435 950.539 355.76 950.539 349.781Z" fill="#24B2FA"/>
</svg>