<svg xmlns="http://www.w3.org/2000/svg" width="250" height="250" viewBox="0 0 250 250" fill="none">
<path d="M125 250C194.036 250 250 194.036 250 125C250 55.9644 194.036 0 125 0C55.9644 0 0 55.9644 0 125C0 194.036 55.9644 250 125 250Z" fill="#0c84ff"/>
<path d="M78.3834 125L59.2586 144.256L40.0026 125L59.2586 105.744L78.3834 125ZM125 78.3834L157.939 111.322L177.185 92.0613L144.247 59.2493L125 40.0026L105.744 59.2586L72.9319 92.0707L92.1879 111.322L125 78.3834ZM190.741 105.744L171.617 125L190.873 144.256L209.997 125L190.741 105.744ZM125 171.617L92.0613 138.678L72.9366 157.939L105.875 190.873L125 209.997L144.256 190.741L177.185 157.812L157.929 138.687L125 171.617ZM125 144.256L144.256 125L125 105.744L105.744 125L125 144.256Z" fill="white"/>
</svg>